<mxfile host="app.diagrams.net" modified="2021-07-08T16:10:36.158Z" agent="5.0 (Linux; Android 10) AppleWebKit/537.36 (KHTML, like Gecko) Chrome/91.0.4472.124 Mobile Safari/537.36" etag="Fxl6EOwqlHsttFpdAdwp" version="14.8.5" type="github">
  <diagram id="FXx-7xSHPWs07obhhWV3" name="Page-1">
    <mxGraphModel dx="466" dy="877" grid="1" gridSize="10" guides="1" tooltips="1" connect="1" arrows="1" fold="1" page="1" pageScale="1" pageWidth="827" pageHeight="1169" math="0" shadow="0">
      <root>
        <mxCell id="0" />
        <mxCell id="1" parent="0" />
        <mxCell id="ckVdD8FRTSBV1up7JjXz-1" value="ContaPoupanca" style="swimlane;fontStyle=1;align=center;verticalAlign=top;childLayout=stackLayout;horizontal=1;startSize=30;horizontalStack=0;resizeParent=1;resizeParentMax=0;resizeLast=0;collapsible=1;marginBottom=0;" vertex="1" parent="1">
          <mxGeometry x="40" y="250" width="160" height="174" as="geometry">
            <mxRectangle x="40" y="250" width="120" height="26" as="alternateBounds" />
          </mxGeometry>
        </mxCell>
        <mxCell id="ckVdD8FRTSBV1up7JjXz-2" value="+ numero&#xa;+ agencia &#xa;+ saldo&#xa;+ taxa" style="text;strokeColor=none;fillColor=none;align=left;verticalAlign=top;spacingLeft=4;spacingRight=4;overflow=hidden;rotatable=0;points=[[0,0.5],[1,0.5]];portConstraint=eastwest;" vertex="1" parent="ckVdD8FRTSBV1up7JjXz-1">
          <mxGeometry y="30" width="160" height="74" as="geometry" />
        </mxCell>
        <mxCell id="ckVdD8FRTSBV1up7JjXz-3" value="" style="line;strokeWidth=1;fillColor=none;align=left;verticalAlign=middle;spacingTop=-1;spacingLeft=3;spacingRight=3;rotatable=0;labelPosition=right;points=[];portConstraint=eastwest;" vertex="1" parent="ckVdD8FRTSBV1up7JjXz-1">
          <mxGeometry y="104" width="160" height="8" as="geometry" />
        </mxCell>
        <mxCell id="ckVdD8FRTSBV1up7JjXz-4" value="+ sacar ()&#xa;+ depositar()&#xa;+ transferir()" style="text;strokeColor=none;fillColor=none;align=left;verticalAlign=top;spacingLeft=4;spacingRight=4;overflow=hidden;rotatable=0;points=[[0,0.5],[1,0.5]];portConstraint=eastwest;" vertex="1" parent="ckVdD8FRTSBV1up7JjXz-1">
          <mxGeometry y="112" width="160" height="62" as="geometry" />
        </mxCell>
        <mxCell id="bIwgAiygXH9u_0vrtXrW-1" value="ContaCorrente" style="swimlane;fontStyle=1;align=center;verticalAlign=top;childLayout=stackLayout;horizontal=1;startSize=26;horizontalStack=0;resizeParent=1;resizeParentMax=0;resizeLast=0;collapsible=1;marginBottom=0;" vertex="1" parent="1">
          <mxGeometry x="220" y="250" width="160" height="170" as="geometry">
            <mxRectangle x="180" y="250" width="120" height="26" as="alternateBounds" />
          </mxGeometry>
        </mxCell>
        <mxCell id="bIwgAiygXH9u_0vrtXrW-2" value="+ numero&#xa;+ agencia &#xa;+ saldo&#xa;+ taxa" style="text;strokeColor=none;fillColor=none;align=left;verticalAlign=top;spacingLeft=4;spacingRight=4;overflow=hidden;rotatable=0;points=[[0,0.5],[1,0.5]];portConstraint=eastwest;" vertex="1" parent="bIwgAiygXH9u_0vrtXrW-1">
          <mxGeometry y="26" width="160" height="74" as="geometry" />
        </mxCell>
        <mxCell id="bIwgAiygXH9u_0vrtXrW-3" value="" style="line;strokeWidth=1;fillColor=none;align=left;verticalAlign=middle;spacingTop=-1;spacingLeft=3;spacingRight=3;rotatable=0;labelPosition=right;points=[];portConstraint=eastwest;" vertex="1" parent="bIwgAiygXH9u_0vrtXrW-1">
          <mxGeometry y="100" width="160" height="8" as="geometry" />
        </mxCell>
        <mxCell id="bIwgAiygXH9u_0vrtXrW-4" value="+ sacar ()&#xa;+ depositar()&#xa;+ transferir()" style="text;strokeColor=none;fillColor=none;align=left;verticalAlign=top;spacingLeft=4;spacingRight=4;overflow=hidden;rotatable=0;points=[[0,0.5],[1,0.5]];portConstraint=eastwest;" vertex="1" parent="bIwgAiygXH9u_0vrtXrW-1">
          <mxGeometry y="108" width="160" height="62" as="geometry" />
        </mxCell>
      </root>
    </mxGraphModel>
  </diagram>
</mxfile>
